<?xml version="1.0" encoding="UTF-8"?>
<svg version="1.1" xmlns="http://www.w3.org/2000/svg" width="16" height="16">
<path d="M0 0 C1.1875 2.25 1.1875 2.25 2 5 C0.625 7.3125 0.625 7.3125 -1 9 C-1.763125 8.814375 -2.52625 8.62875 -3.3125 8.4375 C-6.08967375 7.77180827 -6.08967375 7.77180827 -9 9 C-10.625 7.3125 -10.625 7.3125 -12 5 C-11.375 2.3125 -11.375 2.3125 -10 0 C-6.30581799 -1.231394 -3.7943739 -0.64432764 0 0 Z " fill="#E18C93" transform="translate(13,4)"/>
<path d="M0 0 C0.66 0 1.32 0 2 0 C3.25664978 2.90600261 4 4.79604584 4 8 C3.01 8.33 2.02 8.66 1 9 C-0.625 7.3125 -0.625 7.3125 -2 5 C-1.1875 2.25 -1.1875 2.25 0 0 Z " fill="#C791DE" transform="translate(3,4)"/>
<path d="M0 0 C2.9375 0.75 2.9375 0.75 6 2 C6.875 4.125 6.875 4.125 7 6 C4 6 4 6 1.8125 4.125 C0 2 0 2 0 0 Z " fill="#F8884E" transform="translate(8,3)"/>
</svg>
